<svg width="230" height="39" viewBox="0 0 230 39" fill="none" xmlns="http://www.w3.org/2000/svg">
<path d="M59.8 11.152C61.576 11.152 63.128 11.504 64.456 12.208C65.784 12.912 66.808 13.904 67.528 15.184C68.264 16.448 68.632 17.912 68.632 19.576C68.632 21.224 68.264 22.688 67.528 23.968C66.808 25.248 65.776 26.24 64.432 26.944C63.104 27.648 61.56 28 59.8 28H53.488V11.152H59.8ZM59.536 24.448C61.088 24.448 62.296 24.024 63.16 23.176C64.024 22.328 64.456 21.128 64.456 19.576C64.456 18.024 64.024 16.816 63.16 15.952C62.296 15.088 61.088 14.656 59.536 14.656H57.592V24.448H59.536ZM83.5495 21.088C83.5495 21.472 83.5255 21.872 83.4775 22.288H74.1895C74.2535 23.12 74.5175 23.76 74.9815 24.208C75.4615 24.64 76.0455 24.856 76.7335 24.856C77.7575 24.856 78.4695 24.424 78.8695 23.56H83.2375C83.0135 24.44 82.6055 25.232 82.0135 25.936C81.4375 26.64 80.7095 27.192 79.8295 27.592C78.9495 27.992 77.9655 28.192 76.8775 28.192C75.5655 28.192 74.3975 27.912 73.3735 27.352C72.3495 26.792 71.5495 25.992 70.9735 24.952C70.3975 23.912 70.1095 22.696 70.1095 21.304C70.1095 19.912 70.3895 18.696 70.9495 17.656C71.5255 16.616 72.3255 15.816 73.3495 15.256C74.3735 14.696 75.5495 14.416 76.8775 14.416C78.1735 14.416 79.3255 14.688 80.3335 15.232C81.3415 15.776 82.1255 16.552 82.6855 17.56C83.2615 18.568 83.5495 19.744 83.5495 21.088ZM79.3495 20.008C79.3495 19.304 79.1095 18.744 78.6295 18.328C78.1495 17.912 77.5495 17.704 76.8295 17.704C76.1415 17.704 75.5575 17.904 75.0775 18.304C74.6135 18.704 74.3255 19.272 74.2135 20.008H79.3495ZM91.1626 28.192C89.9946 28.192 88.9546 27.992 88.0426 27.592C87.1306 27.192 86.4106 26.648 85.8826 25.96C85.3546 25.256 85.0586 24.472 84.9946 23.608H89.0506C89.0986 24.072 89.3146 24.448 89.6986 24.736C90.0826 25.024 90.5546 25.168 91.1146 25.168C91.6266 25.168 92.0186 25.072 92.2906 24.88C92.5786 24.672 92.7226 24.408 92.7226 24.088C92.7226 23.704 92.5226 23.424 92.1226 23.248C91.7226 23.056 91.0746 22.848 90.1786 22.624C89.2186 22.4 88.4186 22.168 87.7786 21.928C87.1386 21.672 86.5866 21.28 86.1226 20.752C85.6586 20.208 85.4266 19.48 85.4266 18.568C85.4266 17.8 85.6346 17.104 86.0506 16.48C86.4826 15.84 87.1066 15.336 87.9226 14.968C88.7546 14.6 89.7386 14.416 90.8746 14.416C92.5546 14.416 93.8746 14.832 94.8346 15.664C95.8106 16.496 96.3706 17.6 96.5146 18.976H92.7226C92.6586 18.512 92.4506 18.144 92.0986 17.872C91.7626 17.6 91.3146 17.464 90.7546 17.464C90.2746 17.464 89.9066 17.56 89.6506 17.752C89.3946 17.928 89.2666 18.176 89.2666 18.496C89.2666 18.88 89.4666 19.168 89.8666 19.36C90.2826 19.552 90.9226 19.744 91.7866 19.936C92.7786 20.192 93.5866 20.448 94.2106 20.704C94.8346 20.944 95.3786 21.344 95.8426 21.904C96.3226 22.448 96.5706 23.184 96.5866 24.112C96.5866 24.896 96.3626 25.6 95.9146 26.224C95.4826 26.832 94.8506 27.312 94.0186 27.664C93.2026 28.016 92.2506 28.192 91.1626 28.192ZM101.161 13.216C100.441 13.216 99.8494 13.008 99.3854 12.592C98.9374 12.16 98.7134 11.632 98.7134 11.008C98.7134 10.368 98.9374 9.84 99.3854 9.424C99.8494 8.992 100.441 8.776 101.161 8.776C101.865 8.776 102.441 8.992 102.889 9.424C103.353 9.84 103.585 10.368 103.585 11.008C103.585 11.632 103.353 12.16 102.889 12.592C102.441 13.008 101.865 13.216 101.161 13.216ZM103.201 14.608V28H99.0974V14.608H103.201ZM111.264 14.416C112.208 14.416 113.032 14.608 113.736 14.992C114.456 15.376 115.008 15.88 115.392 16.504V14.608H119.496V27.976C119.496 29.208 119.248 30.32 118.752 31.312C118.272 32.32 117.528 33.12 116.52 33.712C115.528 34.304 114.288 34.6 112.8 34.6C110.816 34.6 109.208 34.128 107.976 33.184C106.744 32.256 106.04 30.992 105.864 29.392H109.92C110.048 29.904 110.352 30.304 110.832 30.592C111.312 30.896 111.904 31.048 112.608 31.048C113.456 31.048 114.128 30.8 114.624 30.304C115.136 29.824 115.392 29.048 115.392 27.976V26.08C114.992 26.704 114.44 27.216 113.736 27.616C113.032 28 112.208 28.192 111.264 28.192C110.16 28.192 109.16 27.912 108.264 27.352C107.368 26.776 106.656 25.968 106.128 24.928C105.616 23.872 105.36 22.656 105.36 21.28C105.36 19.904 105.616 18.696 106.128 17.656C106.656 16.616 107.368 15.816 108.264 15.256C109.16 14.696 110.16 14.416 111.264 14.416ZM115.392 21.304C115.392 20.28 115.104 19.472 114.528 18.88C113.968 18.288 113.28 17.992 112.464 17.992C111.648 17.992 110.952 18.288 110.376 18.88C109.816 19.456 109.536 20.256 109.536 21.28C109.536 22.304 109.816 23.12 110.376 23.728C110.952 24.32 111.648 24.616 112.464 24.616C113.28 24.616 113.968 24.32 114.528 23.728C115.104 23.136 115.392 22.328 115.392 21.304ZM130.625 14.464C132.193 14.464 133.441 14.976 134.369 16C135.313 17.008 135.785 18.4 135.785 20.176V28H131.705V20.728C131.705 19.832 131.473 19.136 131.009 18.64C130.545 18.144 129.921 17.896 129.137 17.896C128.353 17.896 127.729 18.144 127.265 18.64C126.801 19.136 126.569 19.832 126.569 20.728V28H122.465V14.608H126.569V16.384C126.985 15.792 127.545 15.328 128.249 14.992C128.953 14.64 129.745 14.464 130.625 14.464ZM137.988 19.6C137.988 17.952 138.356 16.48 139.092 15.184C139.844 13.872 140.86 12.856 142.14 12.136C143.436 11.4 144.884 11.032 146.484 11.032C148.356 11.032 149.996 11.512 151.404 12.472C152.812 13.432 153.796 14.76 154.356 16.456H150.492C150.108 15.656 149.564 15.056 148.86 14.656C148.172 14.256 147.372 14.056 146.46 14.056C145.484 14.056 144.612 14.288 143.844 14.752C143.092 15.2 142.5 15.84 142.068 16.672C141.652 17.504 141.444 18.48 141.444 19.6C141.444 20.704 141.652 21.68 142.068 22.528C142.5 23.36 143.092 24.008 143.844 24.472C144.612 24.92 145.484 25.144 146.46 25.144C147.372 25.144 148.172 24.944 148.86 24.544C149.564 24.128 150.108 23.52 150.492 22.72H154.356C153.796 24.432 152.812 25.768 151.404 26.728C150.012 27.672 148.372 28.144 146.484 28.144C144.884 28.144 143.436 27.784 142.14 27.064C140.86 26.328 139.844 25.312 139.092 24.016C138.356 22.72 137.988 21.248 137.988 19.6ZM156.362 21.304C156.362 19.96 156.626 18.768 157.154 17.728C157.698 16.688 158.426 15.888 159.338 15.328C160.266 14.768 161.298 14.488 162.434 14.488C163.426 14.488 164.29 14.688 165.026 15.088C165.778 15.488 166.378 15.992 166.826 16.6V14.704H170.21V28H166.826V26.056C166.394 26.68 165.794 27.2 165.026 27.616C164.274 28.016 163.402 28.216 162.41 28.216C161.29 28.216 160.266 27.928 159.338 27.352C158.426 26.776 157.698 25.968 157.154 24.928C156.626 23.872 156.362 22.664 156.362 21.304ZM166.826 21.352C166.826 20.536 166.666 19.84 166.346 19.264C166.026 18.672 165.594 18.224 165.05 17.92C164.506 17.6 163.922 17.44 163.298 17.44C162.674 17.44 162.098 17.592 161.57 17.896C161.042 18.2 160.61 18.648 160.274 19.24C159.954 19.816 159.794 20.504 159.794 21.304C159.794 22.104 159.954 22.808 160.274 23.416C160.61 24.008 161.042 24.464 161.57 24.784C162.114 25.104 162.69 25.264 163.298 25.264C163.922 25.264 164.506 25.112 165.05 24.808C165.594 24.488 166.026 24.04 166.346 23.464C166.666 22.872 166.826 22.168 166.826 21.352ZM190.004 14.512C191.636 14.512 192.948 15.016 193.94 16.024C194.948 17.016 195.452 18.408 195.452 20.2V28H192.092V20.656C192.092 19.616 191.828 18.824 191.3 18.28C190.772 17.72 190.052 17.44 189.14 17.44C188.228 17.44 187.5 17.72 186.956 18.28C186.428 18.824 186.164 19.616 186.164 20.656V28H182.804V20.656C182.804 19.616 182.54 18.824 182.012 18.28C181.484 17.72 180.764 17.44 179.852 17.44C178.924 17.44 178.188 17.72 177.644 18.28C177.116 18.824 176.852 19.616 176.852 20.656V28H173.492V14.704H176.852V16.312C177.284 15.752 177.836 15.312 178.508 14.992C179.196 14.672 179.948 14.512 180.764 14.512C181.804 14.512 182.732 14.736 183.548 15.184C184.364 15.616 184.996 16.24 185.444 17.056C185.876 16.288 186.5 15.672 187.316 15.208C188.148 14.744 189.044 14.512 190.004 14.512ZM202 16.624C202.432 16.016 203.024 15.512 203.776 15.112C204.544 14.696 205.416 14.488 206.392 14.488C207.528 14.488 208.552 14.768 209.464 15.328C210.392 15.888 211.12 16.688 211.648 17.728C212.192 18.752 212.464 19.944 212.464 21.304C212.464 22.664 212.192 23.872 211.648 24.928C211.12 25.968 210.392 26.776 209.464 27.352C208.552 27.928 207.528 28.216 206.392 28.216C205.416 28.216 204.552 28.016 203.8 27.616C203.064 27.216 202.464 26.712 202 26.104V34.336H198.64V14.704H202V16.624ZM209.032 21.304C209.032 20.504 208.864 19.816 208.528 19.24C208.208 18.648 207.776 18.2 207.232 17.896C206.704 17.592 206.128 17.44 205.504 17.44C204.896 17.44 204.32 17.6 203.776 17.92C203.248 18.224 202.816 18.672 202.48 19.264C202.16 19.856 202 20.552 202 21.352C202 22.152 202.16 22.848 202.48 23.44C202.816 24.032 203.248 24.488 203.776 24.808C204.32 25.112 204.896 25.264 205.504 25.264C206.128 25.264 206.704 25.104 207.232 24.784C207.776 24.464 208.208 24.008 208.528 23.416C208.864 22.824 209.032 22.12 209.032 21.304Z" fill="black"/>
<path fill-rule="evenodd" clip-rule="evenodd" d="M13.0459 32.971C12.6408 32.8933 12.2403 32.8002 11.8443 32.6918C10.4568 32.3082 9.16218 31.7622 7.96058 31.0539C6.75898 30.3456 5.66467 29.4898 4.67764 28.4864C3.70492 27.483 2.8681 26.3689 2.16717 25.1442C1.48054 23.9194 0.944112 22.5914 0.557884 21.16C0.185961 19.714 0 18.2089 0 16.6447C0 15.0806 0.185961 13.5829 0.557884 12.1515C0.944112 10.7054 1.48054 9.37003 2.16717 8.14529C2.8681 6.90579 3.70492 5.78434 4.67764 4.78093C5.66467 3.77753 6.75898 2.92168 7.96058 2.21339C9.16218 1.50511 10.4568 0.959137 11.8443 0.575482C13.2462 0.191828 14.7053 0 16.2216 0C17.6806 0 19.104 0.177072 20.4915 0.531215C21.8934 0.885358 23.1951 1.42395 24.3967 2.14699C25.5983 2.85528 26.664 3.75539 27.5938 4.84733C28.2374 5.58159 28.7879 6.40497 29.2453 7.31749C29.8103 7.40258 30.3685 7.51619 30.9197 7.65834C32.2929 8.01249 33.5803 8.52157 34.7819 9.18559C35.9978 9.83485 37.1065 10.6317 38.1078 11.576C39.1234 12.5204 39.9889 13.5829 40.7041 14.7633C41.4336 15.9291 41.9987 17.2128 42.3992 18.6146C42.7997 20.0017 43 21.4699 43 23.0193C43 24.5687 42.7997 26.0443 42.3992 27.4461C41.9987 28.8331 41.4336 30.1169 40.7041 31.2974C39.9889 32.4779 39.1306 33.5477 38.1292 34.5068C37.1279 35.4512 36.0193 36.2554 34.8034 36.9194C33.6018 37.5834 32.3072 38.0999 30.9197 38.4688C29.5464 38.8229 28.1302 39 26.6712 39H13.0459V32.971ZM24.6865 7.12713C24.2804 6.53704 23.8119 6.02058 23.2809 5.57775C22.6229 5.00227 21.8719 4.55959 21.0279 4.24972C20.184 3.92509 19.2613 3.76277 18.26 3.76277C17.1871 3.76277 16.2001 3.94722 15.2989 4.31612C14.412 4.67026 13.6109 5.16459 12.8957 5.79909C12.1948 6.4336 11.5797 7.1714 11.0504 8.01249C10.5211 8.85358 10.0777 9.75369 9.72006 10.7128C9.36244 11.6572 9.0978 12.6385 8.92615 13.6566C8.75449 14.6748 8.66866 15.6708 8.66866 16.6447C8.66866 18.1941 8.84032 19.7361 9.18363 21.2707C9.54125 22.8053 10.0991 24.185 10.8573 25.4098C11.4544 26.3564 12.1839 27.1665 13.0459 27.8398V7.12713H24.6865ZM21.5644 32.3973C22.5126 32.0833 23.4138 31.6797 24.268 31.1867C25.4839 30.4932 26.5639 29.6226 27.508 28.5749C28.4521 27.5125 29.1959 26.2804 29.7395 24.8785L26.0274 23.3513C25.727 24.2219 25.3265 25.0335 24.8258 25.786C24.3252 26.5386 23.7387 27.1952 23.0664 27.756C22.6045 28.1392 22.1038 28.4679 21.5644 28.7421V10.1373H23.8174C25.6627 10.1373 27.2433 10.4841 28.5594 11.1776C29.8897 11.8712 30.984 12.8082 31.8423 13.9886C32.7006 15.1691 33.33 16.5414 33.7305 18.1056C34.1454 19.6549 34.3528 21.2928 34.3528 23.0193C34.3528 24.731 34.1454 26.3615 33.7305 27.9109C33.3157 29.4603 32.672 30.8326 31.7994 32.0278C30.9411 33.2083 29.8468 34.1527 28.5165 34.861C27.2004 35.5545 25.6341 35.9012 23.8174 35.9012H21.5644V32.3973Z" fill="#FFA500"/>
</svg>
